<svg width="175" height="185" viewBox="0 0 175 185" fill="none" xmlns="http://www.w3.org/2000/svg">
<g filter="url(#filter0_d)">
<rect width="51.8" height="51.8" transform="matrix(-1 -6.55671e-08 -6.55671e-08 1 185.4 29.9992)" fill="url(#paint0_linear)" fill-opacity="0.5"/>
<rect x="-0.5" y="0.5" width="50.8" height="50.8" transform="matrix(-1 -6.55671e-08 -6.55671e-08 1 184.4 29.9992)" stroke="url(#paint1_linear)" stroke-opacity="0.5"/>
<rect width="34.5333" height="34.5333" transform="matrix(-1 -6.55671e-08 -6.55671e-08 1 176.767 38.6333)" fill="url(#paint2_linear)" fill-opacity="0.5"/>
<rect x="-0.5" y="0.5" width="33.5333" height="33.5333" transform="matrix(-1 -6.55671e-08 -6.55671e-08 1 175.767 38.6333)" stroke="#633F27" stroke-opacity="0.5"/>
<rect width="40.2889" height="40.2889" transform="matrix(-1 -6.55671e-08 -6.55671e-08 1 179.645 35.7562)" fill="url(#paint3_linear)" fill-opacity="0.5"/>
<rect x="-0.5" y="0.5" width="39.2889" height="39.2889" transform="matrix(-1 -6.55671e-08 -6.55671e-08 1 178.645 35.7562)" stroke="#916548" stroke-opacity="0.5"/>
<path d="M145.111 45.0519L145.111 41.5109L148.652 41.5109L145.111 45.0519Z" fill="#804F2F" fill-opacity="0.5"/>
<path d="M160.862 41.5109L145.111 57.2614L145.111 61.3308L164.931 41.5109L160.862 41.5109Z" fill="#804F2F" fill-opacity="0.5"/>
<path d="M169.002 41.5109L145.111 65.4015L145.111 69.4709L173.072 41.5109L169.002 41.5109Z" fill="#804F2F" fill-opacity="0.5"/>
<path d="M173.889 44.7625L148.363 70.2887L152.432 70.2887L173.889 48.8318L173.889 44.7625Z" fill="#804F2F" fill-opacity="0.5"/>
<path d="M173.889 52.9026L156.503 70.2887L160.572 70.2887L173.889 56.9719L173.889 52.9026Z" fill="#804F2F" fill-opacity="0.5"/>
<path d="M173.889 65.1114L173.889 61.0413L164.642 70.2887L168.711 70.2887L173.889 65.1114Z" fill="#804F2F" fill-opacity="0.5"/>
<path d="M172.782 70.2887L173.889 69.1814L173.889 70.2887L172.782 70.2887Z" fill="#804F2F" fill-opacity="0.5"/>
<path d="M145.111 49.1213L145.111 53.1914L156.792 41.5109L152.722 41.5109L145.111 49.1213Z" fill="#804F2F" fill-opacity="0.5"/>
<rect width="51.8" height="51.8" transform="matrix(-1 -6.55671e-08 -6.55671e-08 1 185.4 81.7993)" fill="url(#paint4_linear)" fill-opacity="0.5"/>
<rect x="-0.5" y="0.5" width="50.8" height="50.8" transform="matrix(-1 -6.55671e-08 -6.55671e-08 1 184.4 81.7993)" stroke="url(#paint5_linear)" stroke-opacity="0.5"/>
<rect width="34.5333" height="34.5333" transform="matrix(-1 -6.55671e-08 -6.55671e-08 1 176.767 90.4333)" fill="url(#paint6_linear)" fill-opacity="0.5"/>
<rect x="-0.5" y="0.5" width="33.5333" height="33.5333" transform="matrix(-1 -6.55671e-08 -6.55671e-08 1 175.767 90.4333)" stroke="#633F27" stroke-opacity="0.5"/>
<rect width="40.2889" height="40.2889" transform="matrix(-1 -6.55671e-08 -6.55671e-08 1 179.645 87.5562)" fill="url(#paint7_linear)" fill-opacity="0.5"/>
<rect x="-0.5" y="0.5" width="39.2889" height="39.2889" transform="matrix(-1 -6.55671e-08 -6.55671e-08 1 178.645 87.5562)" stroke="#916548" stroke-opacity="0.5"/>
<path d="M145.111 96.852L145.111 93.311L148.652 93.311L145.111 96.852Z" fill="#804F2F" fill-opacity="0.5"/>
<path d="M160.862 93.311L145.111 109.061L145.111 113.131L164.931 93.311L160.862 93.311Z" fill="#804F2F" fill-opacity="0.5"/>
<path d="M169.002 93.311L145.111 117.202L145.111 121.271L173.072 93.311L169.002 93.311Z" fill="#804F2F" fill-opacity="0.5"/>
<path d="M173.889 96.5625L148.363 122.089L152.432 122.089L173.889 100.632L173.889 96.5625Z" fill="#804F2F" fill-opacity="0.5"/>
<path d="M173.889 104.703L156.503 122.089L160.572 122.089L173.889 108.772L173.889 104.703Z" fill="#804F2F" fill-opacity="0.5"/>
<path d="M173.889 116.911L173.889 112.841L164.642 122.089L168.711 122.089L173.889 116.911Z" fill="#804F2F" fill-opacity="0.5"/>
<path d="M172.782 122.089L173.889 120.981L173.889 122.089L172.782 122.089Z" fill="#804F2F" fill-opacity="0.5"/>
<path d="M145.111 100.921L145.111 104.991L156.792 93.311L152.722 93.311L145.111 100.921Z" fill="#804F2F" fill-opacity="0.5"/>
<rect width="51.8" height="51.8" transform="matrix(-1 -6.55671e-08 -6.55671e-08 1 185.4 133.599)" fill="url(#paint8_linear)" fill-opacity="0.5"/>
<rect x="-0.5" y="0.5" width="50.8" height="50.8" transform="matrix(-1 -6.55671e-08 -6.55671e-08 1 184.4 133.599)" stroke="url(#paint9_linear)" stroke-opacity="0.5"/>
<rect width="34.5333" height="34.5333" transform="matrix(-1 -6.55671e-08 -6.55671e-08 1 176.767 142.233)" fill="url(#paint10_linear)" fill-opacity="0.5"/>
<rect x="-0.5" y="0.5" width="33.5333" height="33.5333" transform="matrix(-1 -6.55671e-08 -6.55671e-08 1 175.767 142.233)" stroke="#633F27" stroke-opacity="0.5"/>
<rect width="40.2889" height="40.2889" transform="matrix(-1 -6.55671e-08 -6.55671e-08 1 179.645 139.356)" fill="url(#paint11_linear)" fill-opacity="0.5"/>
<rect x="-0.5" y="0.5" width="39.2889" height="39.2889" transform="matrix(-1 -6.55671e-08 -6.55671e-08 1 178.645 139.356)" stroke="#916548" stroke-opacity="0.5"/>
<path d="M145.111 148.652L145.111 145.111L148.652 145.111L145.111 148.652Z" fill="#804F2F" fill-opacity="0.5"/>
<path d="M160.862 145.111L145.111 160.862L145.111 164.931L164.931 145.111L160.862 145.111Z" fill="#804F2F" fill-opacity="0.5"/>
<path d="M169.002 145.111L145.111 169.002L145.111 173.071L173.072 145.111L169.002 145.111Z" fill="#804F2F" fill-opacity="0.5"/>
<path d="M173.889 148.363L148.363 173.889L152.432 173.889L173.889 152.432L173.889 148.363Z" fill="#804F2F" fill-opacity="0.5"/>
<path d="M173.889 156.503L156.503 173.889L160.572 173.889L173.889 160.572L173.889 156.503Z" fill="#804F2F" fill-opacity="0.5"/>
<path d="M173.889 168.712L173.889 164.641L164.642 173.889L168.711 173.889L173.889 168.712Z" fill="#804F2F" fill-opacity="0.5"/>
<path d="M172.782 173.889L173.889 172.782L173.889 173.889L172.782 173.889Z" fill="#804F2F" fill-opacity="0.5"/>
<path d="M145.111 152.721L145.111 156.792L156.792 145.111L152.722 145.111L145.111 152.721Z" fill="#804F2F" fill-opacity="0.5"/>
<rect width="51.8" height="51.8" transform="matrix(-1 -6.55671e-08 -6.55671e-08 1 133.6 133.599)" fill="url(#paint12_linear)" fill-opacity="0.5"/>
<rect x="-0.5" y="0.5" width="50.8" height="50.8" transform="matrix(-1 -6.55671e-08 -6.55671e-08 1 132.6 133.599)" stroke="url(#paint13_linear)" stroke-opacity="0.5"/>
<rect width="34.5333" height="34.5333" transform="matrix(-1 -6.55671e-08 -6.55671e-08 1 124.967 142.233)" fill="url(#paint14_linear)" fill-opacity="0.5"/>
<rect x="-0.5" y="0.5" width="33.5333" height="33.5333" transform="matrix(-1 -6.55671e-08 -6.55671e-08 1 123.967 142.233)" stroke="#633F27" stroke-opacity="0.5"/>
<rect width="40.2889" height="40.2889" transform="matrix(-1 -6.55671e-08 -6.55671e-08 1 127.844 139.356)" fill="url(#paint15_linear)" fill-opacity="0.5"/>
<rect x="-0.5" y="0.5" width="39.2889" height="39.2889" transform="matrix(-1 -6.55671e-08 -6.55671e-08 1 126.844 139.356)" stroke="#916548" stroke-opacity="0.5"/>
<path d="M93.3113 148.652L93.3113 145.111L96.8523 145.111L93.3113 148.652Z" fill="#804F2F" fill-opacity="0.5"/>
<path d="M109.062 145.111L93.3113 160.862L93.3113 164.931L113.131 145.111L109.062 145.111Z" fill="#804F2F" fill-opacity="0.5"/>
<path d="M117.202 145.111L93.3113 169.002L93.3113 173.071L121.271 145.111L117.202 145.111Z" fill="#804F2F" fill-opacity="0.5"/>
<path d="M122.089 148.363L96.5627 173.889L100.632 173.889L122.089 152.432L122.089 148.363Z" fill="#804F2F" fill-opacity="0.5"/>
<path d="M122.089 156.503L104.703 173.889L108.772 173.889L122.089 160.572L122.089 156.503Z" fill="#804F2F" fill-opacity="0.5"/>
<path d="M122.089 168.712L122.089 164.641L112.842 173.889L116.911 173.889L122.089 168.712Z" fill="#804F2F" fill-opacity="0.5"/>
<path d="M120.982 173.889L122.089 172.782L122.089 173.889L120.982 173.889Z" fill="#804F2F" fill-opacity="0.5"/>
<path d="M93.3113 152.721L93.3113 156.792L104.992 145.111L100.922 145.111L93.3113 152.721Z" fill="#804F2F" fill-opacity="0.5"/>
<rect width="51.8" height="51.8" transform="matrix(-1 -6.55671e-08 -6.55671e-08 1 81.7998 133.599)" fill="url(#paint16_linear)" fill-opacity="0.5"/>
<rect x="-0.5" y="0.5" width="50.8" height="50.8" transform="matrix(-1 -6.55671e-08 -6.55671e-08 1 80.7998 133.599)" stroke="url(#paint17_linear)" stroke-opacity="0.5"/>
<rect width="34.5333" height="34.5333" transform="matrix(-1 -6.55671e-08 -6.55671e-08 1 73.1667 142.233)" fill="url(#paint18_linear)" fill-opacity="0.5"/>
<rect x="-0.5" y="0.5" width="33.5333" height="33.5333" transform="matrix(-1 -6.55671e-08 -6.55671e-08 1 72.1667 142.233)" stroke="#633F27" stroke-opacity="0.5"/>
<rect width="40.2889" height="40.2889" transform="matrix(-1 -6.55671e-08 -6.55671e-08 1 76.0442 139.356)" fill="url(#paint19_linear)" fill-opacity="0.5"/>
<rect x="-0.5" y="0.5" width="39.2889" height="39.2889" transform="matrix(-1 -6.55671e-08 -6.55671e-08 1 75.0442 139.356)" stroke="#916548" stroke-opacity="0.5"/>
<path d="M41.511 148.652L41.511 145.111L45.0521 145.111L41.511 148.652Z" fill="#804F2F" fill-opacity="0.5"/>
<path d="M57.2614 145.111L41.511 160.862L41.511 164.931L61.3311 145.111L57.2614 145.111Z" fill="#804F2F" fill-opacity="0.5"/>
<path d="M65.4015 145.111L41.511 169.002L41.511 173.071L69.4712 145.111L65.4015 145.111Z" fill="#804F2F" fill-opacity="0.5"/>
<path d="M70.2888 148.363L44.7624 173.889L48.8319 173.889L70.2888 152.432L70.2888 148.363Z" fill="#804F2F" fill-opacity="0.5"/>
<path d="M70.2888 156.503L52.9025 173.889L56.9721 173.889L70.2888 160.572L70.2888 156.503Z" fill="#804F2F" fill-opacity="0.5"/>
<path d="M70.2888 168.712L70.2888 164.641L61.0416 173.889L65.1111 173.889L70.2888 168.712Z" fill="#804F2F" fill-opacity="0.5"/>
<path d="M69.1814 173.889L70.2888 172.782L70.2888 173.889L69.1814 173.889Z" fill="#804F2F" fill-opacity="0.5"/>
<path d="M41.511 152.721L41.511 156.792L53.1913 145.111L49.1216 145.111L41.511 152.721Z" fill="#804F2F" fill-opacity="0.5"/>
<rect width="51.8" height="51.8" transform="matrix(-1 -6.55671e-08 -6.55671e-08 1 133.6 81.7993)" fill="url(#paint20_linear)" fill-opacity="0.5"/>
<rect x="-0.5" y="0.5" width="50.8" height="50.8" transform="matrix(-1 -6.55671e-08 -6.55671e-08 1 132.6 81.7993)" stroke="url(#paint21_linear)" stroke-opacity="0.5"/>
<rect width="34.5333" height="34.5333" transform="matrix(-1 -6.55671e-08 -6.55671e-08 1 124.967 90.4333)" fill="url(#paint22_linear)" fill-opacity="0.5"/>
<rect x="-0.5" y="0.5" width="33.5333" height="33.5333" transform="matrix(-1 -6.55671e-08 -6.55671e-08 1 123.967 90.4333)" stroke="#633F27" stroke-opacity="0.5"/>
<rect width="40.2889" height="40.2889" transform="matrix(-1 -6.55671e-08 -6.55671e-08 1 127.844 87.5562)" fill="url(#paint23_linear)" fill-opacity="0.5"/>
<rect x="-0.5" y="0.5" width="39.2889" height="39.2889" transform="matrix(-1 -6.55671e-08 -6.55671e-08 1 126.844 87.5562)" stroke="#916548" stroke-opacity="0.5"/>
<path d="M93.3113 96.852L93.3113 93.311L96.8523 93.311L93.3113 96.852Z" fill="#804F2F" fill-opacity="0.5"/>
<path d="M109.062 93.311L93.3113 109.061L93.3113 113.131L113.131 93.311L109.062 93.311Z" fill="#804F2F" fill-opacity="0.5"/>
<path d="M117.202 93.311L93.3113 117.202L93.3113 121.271L121.271 93.311L117.202 93.311Z" fill="#804F2F" fill-opacity="0.5"/>
<path d="M122.089 96.5625L96.5627 122.089L100.632 122.089L122.089 100.632L122.089 96.5625Z" fill="#804F2F" fill-opacity="0.5"/>
<path d="M122.089 104.703L104.703 122.089L108.772 122.089L122.089 108.772L122.089 104.703Z" fill="#804F2F" fill-opacity="0.5"/>
<path d="M122.089 116.911L122.089 112.841L112.842 122.089L116.911 122.089L122.089 116.911Z" fill="#804F2F" fill-opacity="0.5"/>
<path d="M120.982 122.089L122.089 120.981L122.089 122.089L120.982 122.089Z" fill="#804F2F" fill-opacity="0.5"/>
<path d="M93.3113 100.921L93.3113 104.991L104.992 93.311L100.922 93.311L93.3113 100.921Z" fill="#804F2F" fill-opacity="0.5"/>
</g>
<defs>
<filter id="filter0_d" x="-0.000244141" y="-0.000793457" width="319" height="215.401" filterUnits="userSpaceOnUse" color-interpolation-filters="sRGB">
<feFlood flood-opacity="0" result="BackgroundImageFix"/>
<feColorMatrix in="SourceAlpha" type="matrix" values="0 0 0 0 0 0 0 0 0 0 0 0 0 0 0 0 0 0 127 0"/>
<feOffset/>
<feGaussianBlur stdDeviation="15"/>
<feColorMatrix type="matrix" values="0 0 0 0 0 0 0 0 0 0 0 0 0 0 0 0 0 0 0.1 0"/>
<feBlend mode="normal" in2="BackgroundImageFix" result="effect1_dropShadow"/>
<feBlend mode="normal" in="SourceGraphic" in2="effect1_dropShadow" result="shape"/>
</filter>
<linearGradient id="paint0_linear" x1="25.9" y1="0" x2="25.9" y2="51.8" gradientUnits="userSpaceOnUse">
<stop stop-color="#71492D"/>
<stop offset="1" stop-color="#3F1700"/>
</linearGradient>
<linearGradient id="paint1_linear" x1="51.8" y1="7.7188e-06" x2="-1.44422e-05" y2="51.8" gradientUnits="userSpaceOnUse">
<stop offset="0.130208" stop-color="#71492D"/>
<stop offset="1" stop-color="#4B3221"/>
</linearGradient>
<linearGradient id="paint2_linear" x1="17.2667" y1="0" x2="17.2667" y2="34.5333" gradientUnits="userSpaceOnUse">
<stop stop-color="#71492D"/>
<stop offset="1" stop-color="#3F1700"/>
</linearGradient>
<linearGradient id="paint3_linear" x1="20.1444" y1="0" x2="20.1444" y2="40.2889" gradientUnits="userSpaceOnUse">
<stop stop-color="#71492D"/>
<stop offset="1" stop-color="#3F1700"/>
</linearGradient>
<linearGradient id="paint4_linear" x1="25.9" y1="0" x2="25.9" y2="51.8" gradientUnits="userSpaceOnUse">
<stop stop-color="#71492D"/>
<stop offset="1" stop-color="#3F1700"/>
</linearGradient>
<linearGradient id="paint5_linear" x1="51.8" y1="7.7188e-06" x2="-1.44422e-05" y2="51.8" gradientUnits="userSpaceOnUse">
<stop offset="0.130208" stop-color="#71492D"/>
<stop offset="1" stop-color="#4B3221"/>
</linearGradient>
<linearGradient id="paint6_linear" x1="17.2667" y1="0" x2="17.2667" y2="34.5333" gradientUnits="userSpaceOnUse">
<stop stop-color="#71492D"/>
<stop offset="1" stop-color="#3F1700"/>
</linearGradient>
<linearGradient id="paint7_linear" x1="20.1444" y1="0" x2="20.1444" y2="40.2889" gradientUnits="userSpaceOnUse">
<stop stop-color="#71492D"/>
<stop offset="1" stop-color="#3F1700"/>
</linearGradient>
<linearGradient id="paint8_linear" x1="25.9" y1="0" x2="25.9" y2="51.8" gradientUnits="userSpaceOnUse">
<stop stop-color="#71492D"/>
<stop offset="1" stop-color="#3F1700"/>
</linearGradient>
<linearGradient id="paint9_linear" x1="51.8" y1="7.7188e-06" x2="-1.44422e-05" y2="51.8" gradientUnits="userSpaceOnUse">
<stop offset="0.130208" stop-color="#71492D"/>
<stop offset="1" stop-color="#4B3221"/>
</linearGradient>
<linearGradient id="paint10_linear" x1="17.2667" y1="0" x2="17.2667" y2="34.5333" gradientUnits="userSpaceOnUse">
<stop stop-color="#71492D"/>
<stop offset="1" stop-color="#3F1700"/>
</linearGradient>
<linearGradient id="paint11_linear" x1="20.1444" y1="0" x2="20.1444" y2="40.2889" gradientUnits="userSpaceOnUse">
<stop stop-color="#71492D"/>
<stop offset="1" stop-color="#3F1700"/>
</linearGradient>
<linearGradient id="paint12_linear" x1="25.9" y1="0" x2="25.9" y2="51.8" gradientUnits="userSpaceOnUse">
<stop stop-color="#71492D"/>
<stop offset="1" stop-color="#3F1700"/>
</linearGradient>
<linearGradient id="paint13_linear" x1="51.8" y1="7.7188e-06" x2="-1.44422e-05" y2="51.8" gradientUnits="userSpaceOnUse">
<stop offset="0.130208" stop-color="#71492D"/>
<stop offset="1" stop-color="#4B3221"/>
</linearGradient>
<linearGradient id="paint14_linear" x1="17.2667" y1="0" x2="17.2667" y2="34.5333" gradientUnits="userSpaceOnUse">
<stop stop-color="#71492D"/>
<stop offset="1" stop-color="#3F1700"/>
</linearGradient>
<linearGradient id="paint15_linear" x1="20.1444" y1="0" x2="20.1444" y2="40.2889" gradientUnits="userSpaceOnUse">
<stop stop-color="#71492D"/>
<stop offset="1" stop-color="#3F1700"/>
</linearGradient>
<linearGradient id="paint16_linear" x1="25.9" y1="0" x2="25.9" y2="51.8" gradientUnits="userSpaceOnUse">
<stop stop-color="#71492D"/>
<stop offset="1" stop-color="#3F1700"/>
</linearGradient>
<linearGradient id="paint17_linear" x1="51.8" y1="7.7188e-06" x2="-1.44422e-05" y2="51.8" gradientUnits="userSpaceOnUse">
<stop offset="0.130208" stop-color="#71492D"/>
<stop offset="1" stop-color="#4B3221"/>
</linearGradient>
<linearGradient id="paint18_linear" x1="17.2667" y1="0" x2="17.2667" y2="34.5333" gradientUnits="userSpaceOnUse">
<stop stop-color="#71492D"/>
<stop offset="1" stop-color="#3F1700"/>
</linearGradient>
<linearGradient id="paint19_linear" x1="20.1444" y1="0" x2="20.1444" y2="40.2889" gradientUnits="userSpaceOnUse">
<stop stop-color="#71492D"/>
<stop offset="1" stop-color="#3F1700"/>
</linearGradient>
<linearGradient id="paint20_linear" x1="25.9" y1="0" x2="25.9" y2="51.8" gradientUnits="userSpaceOnUse">
<stop stop-color="#71492D"/>
<stop offset="1" stop-color="#3F1700"/>
</linearGradient>
<linearGradient id="paint21_linear" x1="51.8" y1="7.7188e-06" x2="-1.44422e-05" y2="51.8" gradientUnits="userSpaceOnUse">
<stop offset="0.130208" stop-color="#71492D"/>
<stop offset="1" stop-color="#4B3221"/>
</linearGradient>
<linearGradient id="paint22_linear" x1="17.2667" y1="0" x2="17.2667" y2="34.5333" gradientUnits="userSpaceOnUse">
<stop stop-color="#71492D"/>
<stop offset="1" stop-color="#3F1700"/>
</linearGradient>
<linearGradient id="paint23_linear" x1="20.1444" y1="0" x2="20.1444" y2="40.2889" gradientUnits="userSpaceOnUse">
<stop stop-color="#71492D"/>
<stop offset="1" stop-color="#3F1700"/>
</linearGradient>
</defs>
</svg>
