<svg width="160" height="186" viewBox="0 0 160 186" fill="none" xmlns="http://www.w3.org/2000/svg">
<g filter="url(#filter0_d)">
<rect width="51.8" height="51.8" transform="matrix(1 1.5299e-07 1.5299e-07 -1 -25.4001 155.401)" fill="url(#paint0_linear)" fill-opacity="0.5"/>
<rect x="0.5" y="-0.5" width="50.8" height="50.8" transform="matrix(1 1.5299e-07 1.5299e-07 -1 -25.4001 154.401)" stroke="url(#paint1_linear)" stroke-opacity="0.5"/>
<rect width="34.5333" height="34.5333" transform="matrix(1 1.5299e-07 1.5299e-07 -1 -16.767 146.767)" fill="url(#paint2_linear)" fill-opacity="0.5"/>
<rect x="0.5" y="-0.5" width="33.5333" height="33.5333" transform="matrix(1 1.5299e-07 1.5299e-07 -1 -16.767 145.767)" stroke="#633F27" stroke-opacity="0.5"/>
<rect width="40.2889" height="40.2889" transform="matrix(1 1.5299e-07 1.5299e-07 -1 -19.6445 149.644)" fill="url(#paint3_linear)" fill-opacity="0.5"/>
<rect x="0.5" y="-0.5" width="39.2889" height="39.2889" transform="matrix(1 1.5299e-07 1.5299e-07 -1 -19.6445 148.644)" stroke="#916548" stroke-opacity="0.5"/>
<path d="M14.8886 140.348L14.8886 143.889L11.3476 143.889L14.8886 140.348Z" fill="#804F2F" fill-opacity="0.5"/>
<path d="M-0.861701 143.889L14.8886 128.139L14.8886 124.069L-4.93141 143.889L-0.861701 143.889Z" fill="#804F2F" fill-opacity="0.5"/>
<path d="M-9.00182 143.889L14.8886 119.999L14.8886 115.929L-13.0715 143.889L-9.00182 143.889Z" fill="#804F2F" fill-opacity="0.5"/>
<path d="M-13.8892 140.638L11.6372 115.111L7.56771 115.111L-13.8892 136.568L-13.8892 140.638Z" fill="#804F2F" fill-opacity="0.5"/>
<path d="M-13.8892 132.498L3.49712 115.111L-0.572412 115.111L-13.8892 128.428L-13.8892 132.498Z" fill="#804F2F" fill-opacity="0.5"/>
<path d="M-13.8892 120.289L-13.8892 124.359L-4.64194 115.111L-8.71148 115.111L-13.8892 120.289Z" fill="#804F2F" fill-opacity="0.5"/>
<path d="M-12.7817 115.111L-13.8892 116.219L-13.8892 115.111L-12.7817 115.111Z" fill="#804F2F" fill-opacity="0.5"/>
<path d="M14.8886 136.279L14.8886 132.209L3.20836 143.889L7.27807 143.889L14.8886 136.279Z" fill="#804F2F" fill-opacity="0.5"/>
<rect width="51.8" height="51.8" transform="matrix(1 1.5299e-07 1.5299e-07 -1 -25.4001 103.601)" fill="url(#paint4_linear)" fill-opacity="0.5"/>
<rect x="0.5" y="-0.5" width="50.8" height="50.8" transform="matrix(1 1.5299e-07 1.5299e-07 -1 -25.4001 102.601)" stroke="url(#paint5_linear)" stroke-opacity="0.5"/>
<rect width="34.5333" height="34.5333" transform="matrix(1 1.5299e-07 1.5299e-07 -1 -16.767 94.9668)" fill="url(#paint6_linear)" fill-opacity="0.5"/>
<rect x="0.5" y="-0.5" width="33.5333" height="33.5333" transform="matrix(1 1.5299e-07 1.5299e-07 -1 -16.767 93.9668)" stroke="#633F27" stroke-opacity="0.5"/>
<rect width="40.2889" height="40.2889" transform="matrix(1 1.5299e-07 1.5299e-07 -1 -19.6445 97.8439)" fill="url(#paint7_linear)" fill-opacity="0.5"/>
<rect x="0.5" y="-0.5" width="39.2889" height="39.2889" transform="matrix(1 1.5299e-07 1.5299e-07 -1 -19.6445 96.8439)" stroke="#916548" stroke-opacity="0.5"/>
<path d="M14.8886 88.5482L14.8886 92.0892L11.3476 92.0892L14.8886 88.5482Z" fill="#804F2F" fill-opacity="0.5"/>
<path d="M-0.861701 92.0892L14.8886 76.3387L14.8886 72.2693L-4.93141 92.0892L-0.861701 92.0892Z" fill="#804F2F" fill-opacity="0.5"/>
<path d="M-9.00182 92.0892L14.8886 68.1986L14.8886 64.1292L-13.0715 92.0892L-9.00182 92.0892Z" fill="#804F2F" fill-opacity="0.5"/>
<path d="M-13.8892 88.8376L11.6372 63.3114L7.56771 63.3114L-13.8892 84.7683L-13.8892 88.8376Z" fill="#804F2F" fill-opacity="0.5"/>
<path d="M-13.8892 80.6975L3.49712 63.3114L-0.572412 63.3114L-13.8892 76.6281L-13.8892 80.6975Z" fill="#804F2F" fill-opacity="0.5"/>
<path d="M-13.8892 68.4887L-13.8892 72.5588L-4.64194 63.3114L-8.71148 63.3114L-13.8892 68.4887Z" fill="#804F2F" fill-opacity="0.5"/>
<path d="M-12.7817 63.3114L-13.8892 64.4187L-13.8892 63.3114L-12.7817 63.3114Z" fill="#804F2F" fill-opacity="0.5"/>
<path d="M14.8886 84.4788L14.8886 80.4087L3.20836 92.0892L7.27807 92.0892L14.8886 84.4788Z" fill="#804F2F" fill-opacity="0.5"/>
<rect width="51.8" height="51.8" transform="matrix(1 1.5299e-07 1.5299e-07 -1 -25.4001 51.8008)" fill="url(#paint8_linear)" fill-opacity="0.5"/>
<rect x="0.5" y="-0.5" width="50.8" height="50.8" transform="matrix(1 1.5299e-07 1.5299e-07 -1 -25.4001 50.8008)" stroke="url(#paint9_linear)" stroke-opacity="0.5"/>
<rect width="34.5333" height="34.5333" transform="matrix(1 1.5299e-07 1.5299e-07 -1 -16.767 43.1667)" fill="url(#paint10_linear)" fill-opacity="0.5"/>
<rect x="0.5" y="-0.5" width="33.5333" height="33.5333" transform="matrix(1 1.5299e-07 1.5299e-07 -1 -16.767 42.1667)" stroke="#633F27" stroke-opacity="0.5"/>
<rect width="40.2889" height="40.2889" transform="matrix(1 1.5299e-07 1.5299e-07 -1 -19.6445 46.0438)" fill="url(#paint11_linear)" fill-opacity="0.5"/>
<rect x="0.5" y="-0.5" width="39.2889" height="39.2889" transform="matrix(1 1.5299e-07 1.5299e-07 -1 -19.6445 45.0438)" stroke="#916548" stroke-opacity="0.5"/>
<path d="M14.8886 36.7481L14.8886 40.2891L11.3476 40.2891L14.8886 36.7481Z" fill="#804F2F" fill-opacity="0.5"/>
<path d="M-0.861701 40.2891L14.8886 24.5386L14.8886 20.4692L-4.93141 40.2891L-0.861701 40.2891Z" fill="#804F2F" fill-opacity="0.5"/>
<path d="M-9.00182 40.2891L14.8886 16.3985L14.8886 12.3291L-13.0715 40.2891L-9.00182 40.2891Z" fill="#804F2F" fill-opacity="0.5"/>
<path d="M-13.8892 37.0375L11.6372 11.5113L7.56771 11.5113L-13.8892 32.9682L-13.8892 37.0375Z" fill="#804F2F" fill-opacity="0.5"/>
<path d="M-13.8892 28.8974L3.49712 11.5113L-0.572412 11.5113L-13.8892 24.828L-13.8892 28.8974Z" fill="#804F2F" fill-opacity="0.5"/>
<path d="M-13.8892 16.6886L-13.8892 20.7587L-4.64194 11.5113L-8.71148 11.5113L-13.8892 16.6886Z" fill="#804F2F" fill-opacity="0.5"/>
<path d="M-12.7817 11.5113L-13.8892 12.6186L-13.8892 11.5113L-12.7817 11.5113Z" fill="#804F2F" fill-opacity="0.5"/>
<path d="M14.8886 32.6787L14.8886 28.6086L3.20836 40.2891L7.27807 40.2891L14.8886 32.6787Z" fill="#804F2F" fill-opacity="0.5"/>
<rect width="51.8" height="51.8" transform="matrix(1 1.5299e-07 1.5299e-07 -1 26.4 51.8008)" fill="url(#paint12_linear)" fill-opacity="0.5"/>
<rect x="0.5" y="-0.5" width="50.8" height="50.8" transform="matrix(1 1.5299e-07 1.5299e-07 -1 26.4 50.8008)" stroke="url(#paint13_linear)" stroke-opacity="0.5"/>
<rect width="34.5333" height="34.5333" transform="matrix(1 1.5299e-07 1.5299e-07 -1 35.0332 43.1667)" fill="url(#paint14_linear)" fill-opacity="0.5"/>
<rect x="0.5" y="-0.5" width="33.5333" height="33.5333" transform="matrix(1 1.5299e-07 1.5299e-07 -1 35.0332 42.1667)" stroke="#633F27" stroke-opacity="0.5"/>
<rect width="40.2889" height="40.2889" transform="matrix(1 1.5299e-07 1.5299e-07 -1 32.1556 46.0438)" fill="url(#paint15_linear)" fill-opacity="0.5"/>
<rect x="0.5" y="-0.5" width="39.2889" height="39.2889" transform="matrix(1 1.5299e-07 1.5299e-07 -1 32.1556 45.0438)" stroke="#916548" stroke-opacity="0.5"/>
<path d="M66.6888 36.7481L66.6888 40.2891L63.1478 40.2891L66.6888 36.7481Z" fill="#804F2F" fill-opacity="0.5"/>
<path d="M50.9385 40.2891L66.6888 24.5386L66.6888 20.4692L46.8688 40.2891L50.9385 40.2891Z" fill="#804F2F" fill-opacity="0.5"/>
<path d="M42.7983 40.2891L66.6888 16.3985L66.6888 12.3291L38.7286 40.2891L42.7983 40.2891Z" fill="#804F2F" fill-opacity="0.5"/>
<path d="M37.911 37.0375L63.4374 11.5113L59.3679 11.5113L37.911 32.9682L37.911 37.0375Z" fill="#804F2F" fill-opacity="0.5"/>
<path d="M37.911 28.8974L55.2973 11.5113L51.2278 11.5113L37.911 24.828L37.911 28.8974Z" fill="#804F2F" fill-opacity="0.5"/>
<path d="M37.911 16.6886L37.911 20.7587L47.1582 11.5113L43.0887 11.5113L37.911 16.6886Z" fill="#804F2F" fill-opacity="0.5"/>
<path d="M39.0185 11.5113L37.911 12.6186L37.911 11.5113L39.0185 11.5113Z" fill="#804F2F" fill-opacity="0.5"/>
<path d="M66.6888 32.6787L66.6888 28.6086L55.0085 40.2891L59.0782 40.2891L66.6888 32.6787Z" fill="#804F2F" fill-opacity="0.5"/>
<rect width="51.8" height="51.8" transform="matrix(1 1.5299e-07 1.5299e-07 -1 78.2001 51.8008)" fill="url(#paint16_linear)" fill-opacity="0.5"/>
<rect x="0.5" y="-0.5" width="50.8" height="50.8" transform="matrix(1 1.5299e-07 1.5299e-07 -1 78.2001 50.8008)" stroke="url(#paint17_linear)" stroke-opacity="0.5"/>
<rect width="34.5333" height="34.5333" transform="matrix(1 1.5299e-07 1.5299e-07 -1 86.8333 43.1667)" fill="url(#paint18_linear)" fill-opacity="0.5"/>
<rect x="0.5" y="-0.5" width="33.5333" height="33.5333" transform="matrix(1 1.5299e-07 1.5299e-07 -1 86.8333 42.1667)" stroke="#633F27" stroke-opacity="0.5"/>
<rect width="40.2889" height="40.2889" transform="matrix(1 1.5299e-07 1.5299e-07 -1 83.9557 46.0438)" fill="url(#paint19_linear)" fill-opacity="0.5"/>
<rect x="0.5" y="-0.5" width="39.2889" height="39.2889" transform="matrix(1 1.5299e-07 1.5299e-07 -1 83.9557 45.0438)" stroke="#916548" stroke-opacity="0.5"/>
<path d="M118.489 36.7481L118.489 40.2891L114.948 40.2891L118.489 36.7481Z" fill="#804F2F" fill-opacity="0.5"/>
<path d="M102.739 40.2891L118.489 24.5386L118.489 20.4692L98.6688 40.2891L102.739 40.2891Z" fill="#804F2F" fill-opacity="0.5"/>
<path d="M94.5984 40.2891L118.489 16.3985L118.489 12.3291L90.5287 40.2891L94.5984 40.2891Z" fill="#804F2F" fill-opacity="0.5"/>
<path d="M89.7111 37.0375L115.237 11.5113L111.168 11.5113L89.7111 32.9682L89.7111 37.0375Z" fill="#804F2F" fill-opacity="0.5"/>
<path d="M89.7111 28.8974L107.097 11.5113L103.028 11.5113L89.7111 24.828L89.7111 28.8974Z" fill="#804F2F" fill-opacity="0.5"/>
<path d="M89.7111 16.6886L89.7111 20.7587L98.9583 11.5113L94.8887 11.5113L89.7111 16.6886Z" fill="#804F2F" fill-opacity="0.5"/>
<path d="M90.8185 11.5113L89.7111 12.6186L89.7111 11.5113L90.8185 11.5113Z" fill="#804F2F" fill-opacity="0.5"/>
<path d="M118.489 32.6787L118.489 28.6086L106.809 40.2891L110.878 40.2891L118.489 32.6787Z" fill="#804F2F" fill-opacity="0.5"/>
<rect width="51.8" height="51.8" transform="matrix(1 1.5299e-07 1.5299e-07 -1 26.4 103.601)" fill="url(#paint20_linear)" fill-opacity="0.5"/>
<rect x="0.5" y="-0.5" width="50.8" height="50.8" transform="matrix(1 1.5299e-07 1.5299e-07 -1 26.4 102.601)" stroke="url(#paint21_linear)" stroke-opacity="0.5"/>
<rect width="34.5333" height="34.5333" transform="matrix(1 1.5299e-07 1.5299e-07 -1 35.0332 94.9668)" fill="url(#paint22_linear)" fill-opacity="0.5"/>
<rect x="0.5" y="-0.5" width="33.5333" height="33.5333" transform="matrix(1 1.5299e-07 1.5299e-07 -1 35.0332 93.9668)" stroke="#633F27" stroke-opacity="0.5"/>
<rect width="40.2889" height="40.2889" transform="matrix(1 1.5299e-07 1.5299e-07 -1 32.1556 97.8439)" fill="url(#paint23_linear)" fill-opacity="0.5"/>
<rect x="0.5" y="-0.5" width="39.2889" height="39.2889" transform="matrix(1 1.5299e-07 1.5299e-07 -1 32.1556 96.8439)" stroke="#916548" stroke-opacity="0.5"/>
<path d="M66.6888 88.5482L66.6888 92.0892L63.1478 92.0892L66.6888 88.5482Z" fill="#804F2F" fill-opacity="0.5"/>
<path d="M50.9385 92.0892L66.6888 76.3387L66.6888 72.2693L46.8688 92.0892L50.9385 92.0892Z" fill="#804F2F" fill-opacity="0.5"/>
<path d="M42.7983 92.0892L66.6888 68.1986L66.6888 64.1292L38.7286 92.0892L42.7983 92.0892Z" fill="#804F2F" fill-opacity="0.5"/>
<path d="M37.911 88.8376L63.4374 63.3114L59.3679 63.3114L37.911 84.7683L37.911 88.8376Z" fill="#804F2F" fill-opacity="0.5"/>
<path d="M37.911 80.6975L55.2973 63.3114L51.2278 63.3114L37.911 76.6281L37.911 80.6975Z" fill="#804F2F" fill-opacity="0.5"/>
<path d="M37.911 68.4887L37.911 72.5588L47.1582 63.3114L43.0887 63.3114L37.911 68.4887Z" fill="#804F2F" fill-opacity="0.5"/>
<path d="M39.0185 63.3114L37.911 64.4187L37.911 63.3114L39.0185 63.3114Z" fill="#804F2F" fill-opacity="0.5"/>
<path d="M66.6888 84.4788L66.6888 80.4087L55.0085 92.0892L59.0782 92.0892L66.6888 84.4788Z" fill="#804F2F" fill-opacity="0.5"/>
</g>
<defs>
<filter id="filter0_d" x="-159" y="-30" width="319" height="215.401" filterUnits="userSpaceOnUse" color-interpolation-filters="sRGB">
<feFlood flood-opacity="0" result="BackgroundImageFix"/>
<feColorMatrix in="SourceAlpha" type="matrix" values="0 0 0 0 0 0 0 0 0 0 0 0 0 0 0 0 0 0 127 0"/>
<feOffset/>
<feGaussianBlur stdDeviation="15"/>
<feColorMatrix type="matrix" values="0 0 0 0 0 0 0 0 0 0 0 0 0 0 0 0 0 0 0.1 0"/>
<feBlend mode="normal" in2="BackgroundImageFix" result="effect1_dropShadow"/>
<feBlend mode="normal" in="SourceGraphic" in2="effect1_dropShadow" result="shape"/>
</filter>
<linearGradient id="paint0_linear" x1="25.9" y1="0" x2="25.9" y2="51.8" gradientUnits="userSpaceOnUse">
<stop stop-color="#71492D"/>
<stop offset="1" stop-color="#3F1700"/>
</linearGradient>
<linearGradient id="paint1_linear" x1="51.8" y1="7.7188e-06" x2="-1.44422e-05" y2="51.8" gradientUnits="userSpaceOnUse">
<stop offset="0.130208" stop-color="#71492D"/>
<stop offset="1" stop-color="#4B3221"/>
</linearGradient>
<linearGradient id="paint2_linear" x1="17.2667" y1="0" x2="17.2667" y2="34.5333" gradientUnits="userSpaceOnUse">
<stop stop-color="#71492D"/>
<stop offset="1" stop-color="#3F1700"/>
</linearGradient>
<linearGradient id="paint3_linear" x1="20.1444" y1="0" x2="20.1444" y2="40.2889" gradientUnits="userSpaceOnUse">
<stop stop-color="#71492D"/>
<stop offset="1" stop-color="#3F1700"/>
</linearGradient>
<linearGradient id="paint4_linear" x1="25.9" y1="0" x2="25.9" y2="51.8" gradientUnits="userSpaceOnUse">
<stop stop-color="#71492D"/>
<stop offset="1" stop-color="#3F1700"/>
</linearGradient>
<linearGradient id="paint5_linear" x1="51.8" y1="7.7188e-06" x2="-1.44422e-05" y2="51.8" gradientUnits="userSpaceOnUse">
<stop offset="0.130208" stop-color="#71492D"/>
<stop offset="1" stop-color="#4B3221"/>
</linearGradient>
<linearGradient id="paint6_linear" x1="17.2667" y1="0" x2="17.2667" y2="34.5333" gradientUnits="userSpaceOnUse">
<stop stop-color="#71492D"/>
<stop offset="1" stop-color="#3F1700"/>
</linearGradient>
<linearGradient id="paint7_linear" x1="20.1444" y1="0" x2="20.1444" y2="40.2889" gradientUnits="userSpaceOnUse">
<stop stop-color="#71492D"/>
<stop offset="1" stop-color="#3F1700"/>
</linearGradient>
<linearGradient id="paint8_linear" x1="25.9" y1="0" x2="25.9" y2="51.8" gradientUnits="userSpaceOnUse">
<stop stop-color="#71492D"/>
<stop offset="1" stop-color="#3F1700"/>
</linearGradient>
<linearGradient id="paint9_linear" x1="51.8" y1="7.7188e-06" x2="-1.44422e-05" y2="51.8" gradientUnits="userSpaceOnUse">
<stop offset="0.130208" stop-color="#71492D"/>
<stop offset="1" stop-color="#4B3221"/>
</linearGradient>
<linearGradient id="paint10_linear" x1="17.2667" y1="0" x2="17.2667" y2="34.5333" gradientUnits="userSpaceOnUse">
<stop stop-color="#71492D"/>
<stop offset="1" stop-color="#3F1700"/>
</linearGradient>
<linearGradient id="paint11_linear" x1="20.1444" y1="0" x2="20.1444" y2="40.2889" gradientUnits="userSpaceOnUse">
<stop stop-color="#71492D"/>
<stop offset="1" stop-color="#3F1700"/>
</linearGradient>
<linearGradient id="paint12_linear" x1="25.9" y1="0" x2="25.9" y2="51.8" gradientUnits="userSpaceOnUse">
<stop stop-color="#71492D"/>
<stop offset="1" stop-color="#3F1700"/>
</linearGradient>
<linearGradient id="paint13_linear" x1="51.8" y1="7.7188e-06" x2="-1.44422e-05" y2="51.8" gradientUnits="userSpaceOnUse">
<stop offset="0.130208" stop-color="#71492D"/>
<stop offset="1" stop-color="#4B3221"/>
</linearGradient>
<linearGradient id="paint14_linear" x1="17.2667" y1="0" x2="17.2667" y2="34.5333" gradientUnits="userSpaceOnUse">
<stop stop-color="#71492D"/>
<stop offset="1" stop-color="#3F1700"/>
</linearGradient>
<linearGradient id="paint15_linear" x1="20.1444" y1="0" x2="20.1444" y2="40.2889" gradientUnits="userSpaceOnUse">
<stop stop-color="#71492D"/>
<stop offset="1" stop-color="#3F1700"/>
</linearGradient>
<linearGradient id="paint16_linear" x1="25.9" y1="0" x2="25.9" y2="51.8" gradientUnits="userSpaceOnUse">
<stop stop-color="#71492D"/>
<stop offset="1" stop-color="#3F1700"/>
</linearGradient>
<linearGradient id="paint17_linear" x1="51.8" y1="7.7188e-06" x2="-1.44422e-05" y2="51.8" gradientUnits="userSpaceOnUse">
<stop offset="0.130208" stop-color="#71492D"/>
<stop offset="1" stop-color="#4B3221"/>
</linearGradient>
<linearGradient id="paint18_linear" x1="17.2667" y1="0" x2="17.2667" y2="34.5333" gradientUnits="userSpaceOnUse">
<stop stop-color="#71492D"/>
<stop offset="1" stop-color="#3F1700"/>
</linearGradient>
<linearGradient id="paint19_linear" x1="20.1444" y1="0" x2="20.1444" y2="40.2889" gradientUnits="userSpaceOnUse">
<stop stop-color="#71492D"/>
<stop offset="1" stop-color="#3F1700"/>
</linearGradient>
<linearGradient id="paint20_linear" x1="25.9" y1="0" x2="25.9" y2="51.8" gradientUnits="userSpaceOnUse">
<stop stop-color="#71492D"/>
<stop offset="1" stop-color="#3F1700"/>
</linearGradient>
<linearGradient id="paint21_linear" x1="51.8" y1="7.7188e-06" x2="-1.44422e-05" y2="51.8" gradientUnits="userSpaceOnUse">
<stop offset="0.130208" stop-color="#71492D"/>
<stop offset="1" stop-color="#4B3221"/>
</linearGradient>
<linearGradient id="paint22_linear" x1="17.2667" y1="0" x2="17.2667" y2="34.5333" gradientUnits="userSpaceOnUse">
<stop stop-color="#71492D"/>
<stop offset="1" stop-color="#3F1700"/>
</linearGradient>
<linearGradient id="paint23_linear" x1="20.1444" y1="0" x2="20.1444" y2="40.2889" gradientUnits="userSpaceOnUse">
<stop stop-color="#71492D"/>
<stop offset="1" stop-color="#3F1700"/>
</linearGradient>
</defs>
</svg>
